<?xml version="1.0" encoding="UTF-8"?>
<!DOCTYPE svg PUBLIC "-//W3C//DTD SVG 1.1//EN" "http://www.w3.org/Graphics/SVG/1.1/DTD/svg11.dtd">
<svg xmlns="http://www.w3.org/2000/svg" version="1.1" width="500px" height="500px" style="shape-rendering:geometricPrecision; text-rendering:geometricPrecision; image-rendering:optimizeQuality; fill-rule:evenodd; clip-rule:evenodd" xmlns:xlink="http://www.w3.org/1999/xlink">
<g><path style="opacity:0.055" fill="#0b0b0b" d="M 130.5,233.5 C 129.5,233.5 128.5,233.5 127.5,233.5C 128.261,232.609 129.261,231.942 130.5,231.5C 131.773,232.257 131.773,232.923 130.5,233.5 Z"/></g>
<g><path style="opacity:0.995" fill="#ededed" d="M 126.5,265.5 C 126.5,255.167 126.5,244.833 126.5,234.5C 126.5,233.833 126.833,233.5 127.5,233.5C 128.5,233.5 129.5,233.5 130.5,233.5C 134.86,238.527 139.527,243.194 144.5,247.5C 144.56,248.043 144.893,248.376 145.5,248.5C 146.494,243.544 146.827,238.544 146.5,233.5C 149.03,232.224 151.697,232.224 154.5,233.5C 155.666,244.151 155.832,254.818 155,265.5C 153.612,266.554 152.112,266.72 150.5,266C 145.64,261.14 140.806,256.306 136,251.5C 135.891,256.614 135.224,261.614 134,266.5C 132.333,266.833 130.667,267.167 129,267.5C 128.005,266.934 127.172,266.267 126.5,265.5 Z"/></g>
<g><path style="opacity:0.996" fill="#e3e3e3" d="M 163.5,232.5 C 169.842,232.334 176.175,232.5 182.5,233C 183.435,235.381 183.768,237.881 183.5,240.5C 179.818,240.335 176.152,240.501 172.5,241C 171.62,242.356 171.286,243.856 171.5,245.5C 175.167,245.5 178.833,245.5 182.5,245.5C 182.5,248.167 182.5,250.833 182.5,253.5C 178.833,253.5 175.167,253.5 171.5,253.5C 171.5,255.167 171.5,256.833 171.5,258.5C 175.767,258.203 179.934,258.536 184,259.5C 184.758,261.769 184.591,263.936 183.5,266C 177.982,267.333 172.482,267.833 167,267.5C 165.333,266.833 163.667,266.167 162,265.5C 161.833,260.167 161.667,254.833 161.5,249.5C 161.548,243.59 162.214,237.924 163.5,232.5 Z"/></g>
<g><path style="opacity:0.996" fill="#e0e0e0" d="M 190.5,232.5 C 193.365,232.055 195.865,232.722 198,234.5C 198.275,240.849 198.275,247.182 198,253.5C 197.702,257.202 199.369,258.869 203,258.5C 204.436,258.441 205.769,258.108 207,257.5C 207.333,249.5 207.667,241.5 208,233.5C 210.667,232.167 213.333,232.167 216,233.5C 216.667,241.833 216.667,250.167 216,258.5C 213.853,264.424 209.52,267.424 203,267.5C 197.482,267.243 193.148,264.909 190,260.5C 189.195,251.089 189.362,241.756 190.5,232.5 Z"/></g>
<g><path style="opacity:0.996" fill="#eeeeee" d="M 221.5,232.5 C 229.174,232.334 236.841,232.5 244.5,233C 246.648,235.075 246.982,237.408 245.5,240C 242.905,240.226 240.405,240.726 238,241.5C 237.667,249.5 237.333,257.5 237,265.5C 234.281,266.444 231.448,266.777 228.5,266.5C 228.666,258.16 228.5,249.827 228,241.5C 225.619,240.565 223.119,240.232 220.5,240.5C 220.279,237.721 220.612,235.054 221.5,232.5 Z"/></g>
<g><path style="opacity:0.997" fill="#e7e7e7" d="M 251.5,232.5 C 258.23,232.226 264.897,232.726 271.5,234C 279.159,240.8 279.492,247.966 272.5,255.5C 275.648,258.773 277.315,262.44 277.5,266.5C 276.833,266.833 276.167,267.167 275.5,267.5C 273.224,266.787 270.891,266.287 268.5,266C 266.583,263.502 264.916,260.835 263.5,258C 262.207,257.51 260.873,257.343 259.5,257.5C 259.777,260.448 259.444,263.281 258.5,266C 255.489,268.049 252.656,267.883 250,265.5C 249.833,260.167 249.667,254.833 249.5,249.5C 249.548,243.59 250.214,237.924 251.5,232.5 Z M 259.5,240.5 C 263.367,239.775 266.034,241.108 267.5,244.5C 267.471,246.029 266.804,247.196 265.5,248C 263.527,248.495 261.527,248.662 259.5,248.5C 259.5,245.833 259.5,243.167 259.5,240.5 Z"/></g>
<g><path style="opacity:0.998" fill="#ebebeb" d="M 293.5,232.5 C 313.578,232.083 320.412,241.416 314,260.5C 304.654,269.389 294.988,269.722 285,261.5C 278.113,248.722 280.947,239.055 293.5,232.5 Z M 295.5,241.5 C 307.136,241.604 310.136,246.77 304.5,257C 295.61,260.113 291.11,256.946 291,247.5C 291.804,244.854 293.304,242.854 295.5,241.5 Z"/></g>
<g><path style="opacity:0.996" fill="#dedede" d="M 321.5,232.5 C 326.511,232.334 331.511,232.501 336.5,233C 339.477,236.598 338.81,239.098 334.5,240.5C 334.5,246.5 334.5,252.5 334.5,258.5C 335.822,258.33 336.989,258.663 338,259.5C 338.944,262.347 338.444,264.847 336.5,267C 331.248,266.774 325.915,266.607 320.5,266.5C 320.337,264.143 320.503,261.81 321,259.5C 322.011,258.663 323.178,258.33 324.5,258.5C 324.5,252.5 324.5,246.5 324.5,240.5C 323.178,240.67 322.011,240.337 321,239.5C 320.297,237.071 320.463,234.738 321.5,232.5 Z"/></g>
<g><path style="opacity:0.998" fill="#ececec" d="M 362.5,247.5 C 362.56,248.043 362.893,248.376 363.5,248.5C 364.493,243.88 364.827,239.214 364.5,234.5C 367.217,231.855 370.05,231.855 373,234.5C 373.667,244.833 373.667,255.167 373,265.5C 371.612,266.554 370.112,266.72 368.5,266C 363.938,261.269 359.271,256.769 354.5,252.5C 354.44,251.957 354.107,251.624 353.5,251.5C 352.507,256.12 352.173,260.786 352.5,265.5C 352.189,266.478 351.522,267.145 350.5,267.5C 348.291,266.894 346.124,266.227 344,265.5C 343.333,254.833 343.333,244.167 344,233.5C 345.507,232.465 347.007,232.632 348.5,234C 353.062,238.731 357.729,243.231 362.5,247.5 Z"/></g>
<g><path style="opacity:0.187" fill="#2a2a2a" d="M 126.5,234.5 C 126.5,244.833 126.5,255.167 126.5,265.5C 125.508,257.684 125.174,249.684 125.5,241.5C 124.167,241.5 122.833,241.5 121.5,241.5C 121.213,237.785 122.88,235.452 126.5,234.5 Z"/></g>
<g><path style="opacity:0.399" fill="#747474" d="M 146.5,233.5 C 146.827,238.544 146.494,243.544 145.5,248.5C 144.893,248.376 144.56,248.043 144.5,247.5C 145.167,242.833 145.833,238.167 146.5,233.5 Z"/></g>
<g><path style="opacity:0.216" fill="#515151" d="M 364.5,234.5 C 364.827,239.214 364.493,243.88 363.5,248.5C 362.893,248.376 362.56,248.043 362.5,247.5C 363.167,243.167 363.833,238.833 364.5,234.5 Z"/></g>
<g><path style="opacity:0.311" fill="#585858" d="M 354.5,252.5 C 353.833,256.833 353.167,261.167 352.5,265.5C 352.173,260.786 352.507,256.12 353.5,251.5C 354.107,251.624 354.44,251.957 354.5,252.5 Z"/></g>
</svg>
